<svg width="38" height="24" viewBox="0 0 38 24" fill="none" xmlns="http://www.w3.org/2000/svg">
<path d="M35.5 0.5H2.5C1.39543 0.5 0.5 1.39543 0.5 2.5V21.5C0.5 22.6046 1.39543 23.5 2.5 23.5H35.5C36.6046 23.5 37.5 22.6046 37.5 21.5V2.5C37.5 1.39543 36.6046 0.5 35.5 0.5Z" fill="#5A31F4" stroke="#3F22AB"/>
<path d="M21.382 9.71305C21.382 11.3811 20.205 12.5711 18.561 12.5711H17.012C16.9776 12.5713 16.9446 12.585 16.92 12.6091C16.9079 12.621 16.8984 12.6351 16.8919 12.6507C16.8853 12.6664 16.882 12.6831 16.882 12.7001V14.8921C16.8819 14.9176 16.8743 14.9425 16.86 14.9637C16.8458 14.9849 16.8256 15.0014 16.802 15.0111C16.7861 15.0177 16.7691 15.0211 16.752 15.0211H15.668C15.6423 15.0211 15.6172 15.0135 15.5959 14.9992C15.5745 14.985 15.5579 14.9647 15.548 14.9411C15.5413 14.9252 15.5379 14.9082 15.538 14.8911V6.98605C15.5378 6.96894 15.5411 6.95198 15.5476 6.93615C15.5541 6.92031 15.5637 6.90593 15.5758 6.89383C15.5879 6.88173 15.6022 6.87216 15.6181 6.86568C15.6339 6.85919 15.6509 6.85592 15.668 6.85605H18.568C20.205 6.85605 21.382 8.04605 21.382 9.71405V9.71305ZM20.03 9.71305C20.03 8.75505 19.372 8.05505 18.48 8.05505H17.012C16.9949 8.05505 16.978 8.05841 16.9622 8.06495C16.9465 8.07148 16.9321 8.08106 16.9201 8.09313C16.908 8.1052 16.8984 8.11953 16.8919 8.1353C16.8853 8.15108 16.882 8.16798 16.882 8.18505V11.2351C16.8818 11.2522 16.8851 11.2691 16.8916 11.285C16.8981 11.3008 16.9077 11.3152 16.9198 11.3273C16.9319 11.3394 16.9462 11.3489 16.9621 11.3554C16.9779 11.3619 16.9949 11.3652 17.012 11.3651H18.48C19.372 11.3701 20.03 10.6701 20.03 9.71305ZM21.704 13.5041C21.6926 13.2479 21.7458 12.9929 21.8589 12.7627C21.972 12.5326 22.1412 12.3346 22.351 12.1871C22.774 11.8711 23.435 11.7071 24.406 11.6731L25.439 11.6371V11.3341C25.439 10.7271 25.029 10.4711 24.371 10.4711C23.713 10.4711 23.296 10.7021 23.201 11.0811C23.1929 11.1077 23.1763 11.1309 23.1537 11.1472C23.1311 11.1634 23.1038 11.1718 23.076 11.1711H22.054C22.0259 11.1714 21.9984 11.1626 21.9756 11.1461C21.9529 11.1295 21.9362 11.106 21.928 11.0791C21.9226 11.0612 21.9212 11.0425 21.924 11.0241C22.076 10.1261 22.828 9.44405 24.418 9.44405C26.11 9.44405 26.721 10.2271 26.721 11.7201V14.8921C26.7209 14.9092 26.7173 14.9262 26.7106 14.942C26.7039 14.9577 26.6941 14.972 26.6818 14.984C26.6696 14.996 26.6551 15.0055 26.6391 15.0118C26.6232 15.0182 26.6061 15.0213 26.589 15.0211H25.559C25.5245 15.0211 25.4914 15.0074 25.4671 14.983C25.4427 14.9586 25.429 14.9255 25.429 14.8911V14.6551C25.4293 14.6355 25.4236 14.6163 25.4127 14.6C25.4018 14.5837 25.3862 14.5712 25.368 14.5641C25.35 14.5568 25.3302 14.555 25.3112 14.559C25.2921 14.5629 25.2747 14.5723 25.261 14.5861C24.951 14.9201 24.453 15.1611 23.654 15.1611C22.479 15.1611 21.704 14.5541 21.704 13.5041ZM25.439 12.8171V12.5711L24.1 12.6411C23.395 12.6771 22.985 12.9671 22.985 13.4571C22.985 13.9011 23.361 14.1471 24.019 14.1471C24.912 14.1471 25.439 13.6671 25.439 12.8171ZM27.755 17.4171V16.4981C27.7552 16.4788 27.7596 16.4598 27.7681 16.4424C27.7765 16.425 27.7886 16.4097 27.8036 16.3976C27.8186 16.3855 27.8361 16.3768 27.8548 16.3722C27.8736 16.3676 27.8931 16.3672 27.912 16.3711C28.07 16.4001 28.23 16.4151 28.391 16.4151C28.6667 16.4302 28.9396 16.3519 29.1654 16.193C29.3913 16.0341 29.5571 15.8037 29.636 15.5391L29.703 15.3281C29.713 15.2996 29.713 15.2685 29.703 15.2401L27.558 9.76905C27.5497 9.74914 27.5465 9.72747 27.5486 9.70601C27.5508 9.68455 27.5583 9.66396 27.5704 9.6461C27.5825 9.62824 27.5988 9.61368 27.618 9.60372C27.6371 9.59376 27.6584 9.58872 27.68 9.58905H28.72C28.7467 9.58912 28.7727 9.59728 28.7947 9.61246C28.8166 9.62763 28.8335 9.64911 28.843 9.67405L30.299 13.5331C30.308 13.559 30.3249 13.5814 30.3473 13.5972C30.3697 13.613 30.3966 13.6213 30.424 13.6211C30.4513 13.621 30.478 13.6126 30.5004 13.5968C30.5228 13.5811 30.5397 13.5588 30.549 13.5331L31.814 9.68505C31.8226 9.65852 31.8394 9.63545 31.8621 9.61925C31.8848 9.60304 31.9121 9.59456 31.94 9.59505H33.016C33.0483 9.59524 33.0794 9.60708 33.1036 9.62839C33.1279 9.64971 33.1436 9.67906 33.148 9.71105C33.1504 9.73239 33.1477 9.75401 33.14 9.77405L30.845 15.8501C30.317 17.2631 29.412 17.6231 28.415 17.6231C28.2258 17.6283 28.0368 17.606 27.854 17.5571C27.8233 17.5495 27.7964 17.5313 27.778 17.5056C27.7597 17.4799 27.7512 17.4485 27.754 17.4171H27.755ZM8.56998 6.40005C7.20548 6.38985 5.8884 6.90016 4.88698 7.82705C4.84437 7.86581 4.81777 7.91908 4.81241 7.97643C4.80704 8.03378 4.8233 8.09107 4.85798 8.13705L5.47598 8.97605C5.50622 9.01861 5.54971 9.04994 5.59965 9.06514C5.64959 9.08034 5.70316 9.07855 5.75198 9.06005C5.78439 9.04789 5.81375 9.02878 5.83798 9.00405C6.1979 8.64665 6.62535 8.36444 7.09542 8.17387C7.56549 7.9833 8.06879 7.88818 8.57598 7.89405C10.696 7.89405 11.803 9.47805 11.803 11.0441C11.803 12.7441 10.64 13.9421 8.96798 13.9651C7.67598 13.9651 6.70198 13.1151 6.70198 11.9911C6.70309 11.7068 6.76768 11.4264 6.89104 11.1704C7.0144 10.9143 7.19341 10.6891 7.41498 10.5111C7.46216 10.4724 7.49211 10.4166 7.49829 10.3559C7.50447 10.2952 7.48639 10.2345 7.44798 10.1871L6.79798 9.37205C6.77836 9.34699 6.75387 9.32617 6.72598 9.31082C6.6981 9.29547 6.6674 9.28592 6.63573 9.28275C6.60406 9.27957 6.57208 9.28283 6.54171 9.29234C6.51133 9.30184 6.48319 9.31739 6.45898 9.33805C6.05998 9.65805 5.73898 10.0621 5.51698 10.5211C5.2957 10.9795 5.18051 11.482 5.17998 11.9911C5.17998 13.9261 6.83498 15.4431 8.95498 15.4551H8.98498C11.502 15.4231 13.322 13.5711 13.322 11.0401C13.322 8.79305 11.655 6.40005 8.56998 6.40005Z" fill="white"/>
</svg>
